<?xml version="1.0" encoding="utf-8"?>
<!-- Generator: Adobe Illustrator 23.0.2, SVG Export Plug-In . SVG Version: 6.00 Build 0)  -->
<svg version="1.1" id="Layer_1" xmlns="http://www.w3.org/2000/svg" xmlns:xlink="http://www.w3.org/1999/xlink" x="0px" y="0px"
	 viewBox="0 0 519.48 344.63" style="enable-background:new 0 0 519.48 344.63;" xml:space="preserve">
<style type="text/css">
	.st0{fill:none;stroke:#017D9F;stroke-linecap:round;stroke-linejoin:round;}
	.st1{fill:none;stroke:#017D9F;stroke-linecap:round;stroke-linejoin:round;stroke-dasharray:0.9355,2.8065;}
	.st2{fill:#FFFFFF;}
	.st3{fill:none;}
	.st4{font-family:'Courier';}
	.st5{font-size:24px;}
	.st6{fill:#037D9F;}
	.st7{font-family:'Times-Roman';}
	.st8{font-size:12px;}
	.st9{font-size:30px;}
	.st10{fill:#017D9F;}
	.st11{fill:none;stroke:#017D9F;stroke-linecap:round;stroke-linejoin:round;stroke-miterlimit:10;}
</style>
<g>
	<g>
		<line class="st0" x1="198.45" y1="140.78" x2="198.95" y2="140.78"/>
		<line class="st1" x1="201.75" y1="140.78" x2="226.54" y2="140.78"/>
		<line class="st0" x1="227.95" y1="140.78" x2="228.45" y2="140.78"/>
	</g>
</g>
<rect x="212.09" y="139.56" class="st2" width="2.71" height="2.43"/>
<rect x="148.88" y="162.46" class="st3" width="471.74" height="316.3"/>
<text transform="matrix(1 0 0 1 148.8836 177.8001)"><tspan x="0" y="0" class="st4 st5">,^n:!p^d:?&lt;d21?%nd</tspan><tspan x="0" y="38" class="st4 st5">         @-d10.</tspan><tspan x="0" y="76" class="st4 st5">    ?&lt;n20p-n1. $101.</tspan></text>
<rect x="131.34" y="100.96" class="st3" width="115.36" height="32.29"/>
<text transform="matrix(1 0 0 1 158.035 109.1536)"><tspan x="0" y="0" class="st6 st7 st8">encapsulated</tspan><tspan x="12.65" y="11" class="st6 st7 st8">binding</tspan></text>
<rect x="13.85" y="224.74" class="st3" width="177.57" height="32.29"/>
<text transform="matrix(1 0 0 1 90.9786 232.9332)"><tspan x="0" y="0" class="st6 st7 st8">local</tspan><tspan x="-31.66" y="11" class="st6 st7 st8">de-anonymization</tspan></text>
<rect x="68.07" y="259.21" class="st3" width="177.57" height="32.29"/>
<text transform="matrix(1 0 0 1 126.3713 267.4031)"><tspan x="0" y="0" class="st6 st7 st8">basic integer</tspan><tspan x="12.16" y="11" class="st6 st7 st8">relation</tspan></text>
<rect x="31.51" y="190.31" class="st3" width="177.57" height="32.29"/>
<text transform="matrix(1 0 0 1 108.9591 198.5069)"><tspan x="0" y="0" class="st6 st7 st8">fully</tspan><tspan x="-18.65" y="11" class="st6 st7 st8">scope-aware</tspan></text>
<rect x="332.93" y="129.24" class="st3" width="177.57" height="32.29"/>
<text transform="matrix(1 0 0 1 391.2319 137.4351)"><tspan x="0" y="0" class="st6 st7 st8">basic integer</tspan><tspan x="5.49" y="11" class="st6 st7 st8">operations</tspan></text>
<rect x="323.23" y="296.52" class="st3" width="177.57" height="80.07"/>
<text transform="matrix(1 0 0 1 376.5221 304.7141)"><tspan x="0" y="0" class="st6 st7 st8">long definition</tspan><tspan x="8.17" y="11" class="st6 st7 st8">terminators</tspan></text>
<rect x="265.84" y="99.09" class="st3" width="90.97" height="48.1"/>
<text transform="matrix(1 0 0 1 283.9962 107.289)"><tspan x="0" y="0" class="st6 st7 st8">intertwined</tspan><tspan x="9.33" y="11" class="st6 st7 st8">choices</tspan></text>
<rect x="419.21" y="216.36" class="st3" width="90.97" height="48.1"/>
<text transform="matrix(1 0 0 1 454.0307 224.5561)"><tspan x="0" y="0" class="st6 st7 st8">long</tspan><tspan x="-21.48" y="12" class="st6 st7 st8">integer literal</tspan></text>
<rect x="229.87" y="288.46" class="st3" width="90.97" height="48.1"/>
<text transform="matrix(1 0 0 1 259.36 296.6515)"><tspan x="0" y="0" class="st6 st7 st8">named</tspan><tspan x="-11.34" y="11" class="st6 st7 st8">single-digit</tspan><tspan x="-3" y="22" class="st6 st7 st8">integers</tspan></text>
<rect x="43.34" y="123.68" class="st3" width="115.36" height="32.29"/>
<text transform="matrix(1 0 0 1 54.1993 131.8776)"><tspan x="0" y="0" class="st6 st7 st8">anonymous lambda </tspan><tspan x="24.5" y="11" class="st6 st7 st8">functions</tspan></text>
<rect x="-4.64" y="158.97" class="st3" width="115.36" height="32.29"/>
<text transform="matrix(1 0 0 1 14.8846 167.1649)"><tspan x="0" y="0" class="st6 st7 st8">execution depth</tspan><tspan x="17.49" y="11" class="st6 st7 st8">modifier</tspan></text>
<rect x="76.07" y="20.96" class="st3" width="363.21" height="147.9"/>
<text transform="matrix(1 0 0 1 113.5786 41.4524)"><tspan x="0" y="0" class="st7 st9">krrp – a prime predicate</tspan><tspan x="69.45" y="26" class="st7 st8">Jonathan Frech, February 2019</tspan></text>
<g>
	<g>
		<line class="st0" x1="242.73" y1="153.82" x2="242.73" y2="140.78"/>
		<g>
			<path class="st10" d="M244.61,153.73c0,1.04-0.84,1.88-1.88,1.88s-1.88-0.84-1.88-1.88c0-1.04,0.84-1.88,1.88-1.88
				S244.61,152.69,244.61,153.73z"/>
		</g>
	</g>
</g>
<g>
	<g>
		<line class="st0" x1="301.06" y1="238.07" x2="310.32" y2="228.94"/>
		<g>
			<path class="st10" d="M302.45,239.34c-0.74,0.73-1.93,0.72-2.66-0.02s-0.72-1.93,0.02-2.66s1.93-0.72,2.66,0.02
				S303.19,238.61,302.45,239.34z"/>
		</g>
	</g>
</g>
<g>
	<g>
		<line class="st0" x1="357.61" y1="153.82" x2="357.61" y2="140.78"/>
		<g>
			<path class="st10" d="M359.49,153.73c0,1.04-0.84,1.88-1.88,1.88s-1.88-0.84-1.88-1.88c0-1.04,0.84-1.88,1.88-1.88
				S359.49,152.69,359.49,153.73z"/>
		</g>
	</g>
</g>
<g>
	<g>
		<line class="st0" x1="285.83" y1="153.82" x2="285.83" y2="140.78"/>
		<g>
			<path class="st10" d="M287.71,153.73c0,1.04-0.84,1.88-1.88,1.88s-1.88-0.84-1.88-1.88c0-1.04,0.84-1.88,1.88-1.88
				S287.71,152.69,287.71,153.73z"/>
		</g>
	</g>
</g>
<g>
	<g>
		<line class="st0" x1="170.65" y1="155.2" x2="170.65" y2="140.78"/>
		<g>
			<path class="st10" d="M172.53,155.11c0,1.04-0.84,1.88-1.88,1.88s-1.88-0.84-1.88-1.88c0-1.04,0.84-1.88,1.88-1.88
				S172.53,154.07,172.53,155.11z"/>
		</g>
	</g>
</g>
<g>
	<g>
		<line class="st0" x1="147.1" y1="176.13" x2="85.06" y2="176.13"/>
		<g>
			<path class="st10" d="M147,174.25c1.04,0,1.88,0.84,1.88,1.88s-0.84,1.88-1.88,1.88c-1.04,0-1.88-0.84-1.88-1.88
				S145.97,174.25,147,174.25z"/>
		</g>
	</g>
</g>
<g>
	<g>
		<line class="st0" x1="184.54" y1="185.64" x2="184.54" y2="196.65"/>
		<g>
			<path class="st10" d="M182.66,185.74c0-1.04,0.84-1.88,1.88-1.88s1.88,0.84,1.88,1.88c0,1.04-0.84,1.88-1.88,1.88
				S182.66,186.78,182.66,185.74z"/>
		</g>
	</g>
</g>
<g>
	<g>
		<line class="st0" x1="256.24" y1="185.64" x2="256.24" y2="196.65"/>
		<g>
			<path class="st10" d="M254.36,185.74c0-1.04,0.84-1.88,1.88-1.88c1.04,0,1.88,0.84,1.88,1.88c0,1.04-0.84,1.88-1.88,1.88
				C255.21,187.62,254.36,186.78,254.36,185.74z"/>
		</g>
	</g>
</g>
<g>
	<g>
		<line class="st0" x1="276.15" y1="209.41" x2="254.62" y2="209.41"/>
		<g>
			<circle class="st10" cx="276.05" cy="209.41" r="1.88"/>
		</g>
	</g>
</g>
<g>
	<g>
		<line class="st0" x1="225.65" y1="259.62" x2="225.65" y2="273.99"/>
		<g>
			<path class="st10" d="M223.77,259.71c0-1.04,0.84-1.88,1.88-1.88s1.88,0.84,1.88,1.88c0,1.04-0.84,1.88-1.88,1.88
				S223.77,260.75,223.77,259.71z"/>
		</g>
	</g>
</g>
<g>
	<g>
		<line class="st0" x1="256.24" y1="262.98" x2="256.24" y2="273.99"/>
		<g>
			<circle class="st10" cx="256.24" cy="263.07" r="1.88"/>
		</g>
	</g>
</g>
<g>
	<g>
		<line class="st0" x1="270.51" y1="262.98" x2="270.51" y2="273.99"/>
		<g>
			<circle class="st10" cx="270.51" cy="263.07" r="1.88"/>
		</g>
	</g>
</g>
<g>
	<g>
		<line class="st0" x1="327.83" y1="262.98" x2="327.83" y2="273.99"/>
		<g>
			<circle class="st10" cx="327.83" cy="263.07" r="1.88"/>
		</g>
	</g>
</g>
<g>
	<g>
		<line class="st0" x1="343.25" y1="262.98" x2="343.25" y2="273.99"/>
		<g>
			<circle class="st10" cx="343.25" cy="263.07" r="1.88"/>
		</g>
	</g>
</g>
<g>
	<g>
		<line class="st0" x1="429.86" y1="262.98" x2="429.86" y2="273.99"/>
		<g>
			<circle class="st10" cx="429.86" cy="263.07" r="1.88"/>
		</g>
	</g>
</g>
<g>
	<g>
		<line class="st0" x1="378.71" y1="234.07" x2="393.99" y2="222.74"/>
		<g>
			<path class="st10" d="M379.91,235.52c-0.83,0.62-2.01,0.44-2.63-0.39c-0.62-0.83-0.44-2.01,0.39-2.63
				c0.83-0.62,2.01-0.44,2.63,0.39C380.92,233.73,380.74,234.9,379.91,235.52z"/>
		</g>
	</g>
</g>
<g>
	<g>
		<line class="st0" x1="370.69" y1="185.64" x2="370.69" y2="204.45"/>
		<g>
			<path class="st10" d="M368.81,185.74c0-1.04,0.84-1.88,1.88-1.88s1.88,0.84,1.88,1.88c0,1.04-0.84,1.88-1.88,1.88
				S368.81,186.78,368.81,185.74z"/>
		</g>
	</g>
</g>
<g>
	<g>
		<line class="st0" x1="213.45" y1="153.82" x2="213.45" y2="119.16"/>
		<g>
			<path class="st10" d="M215.33,153.73c0,1.04-0.84,1.88-1.88,1.88s-1.88-0.84-1.88-1.88c0-1.04,0.84-1.88,1.88-1.88
				S215.33,152.69,215.33,153.73z"/>
		</g>
	</g>
</g>
<line class="st11" x1="285.83" y1="140.78" x2="357.61" y2="140.78"/>
<line class="st11" x1="310.32" y1="228.94" x2="370.69" y2="228.94"/>
<line class="st11" x1="140.2" y1="196.65" x2="256.24" y2="196.65"/>
<line class="st11" x1="234.26" y1="227.6" x2="130.07" y2="227.6"/>
<line class="st11" x1="256.24" y1="273.99" x2="327.83" y2="273.99"/>
<line class="st11" x1="299.04" y1="273.99" x2="299.04" y2="290.92"/>
<line class="st11" x1="370.69" y1="204.45" x2="419.61" y2="204.45"/>
<line class="st11" x1="170.65" y1="140.78" x2="130.07" y2="140.78"/>
<line class="st11" x1="225.65" y1="273.99" x2="181.6" y2="273.99"/>
<line class="st11" x1="198.45" y1="140.78" x2="170.65" y2="140.78"/>
<line class="st11" x1="228.45" y1="140.78" x2="242.73" y2="140.78"/>
<line class="st11" x1="337.15" y1="140.78" x2="337.15" y2="117.1"/>
<line class="st11" x1="419.61" y1="155.61" x2="419.61" y2="204.45"/>
<line class="st11" x1="343.25" y1="273.99" x2="429.86" y2="273.99"/>
<line class="st11" x1="412.66" y1="273.99" x2="412.66" y2="290.92"/>
<line class="st11" x1="393.99" y1="222.74" x2="443.44" y2="222.74"/>
<line class="st11" x1="370.69" y1="228.94" x2="370.69" y2="204.45"/>
<line class="st11" x1="254.62" y1="209.41" x2="234.26" y2="227.6"/>
</svg>
